PathFileType	4	(X/Y/Z)	C:/ViconProjects/foot_20160225/trc/2_test02_dynamic.trc
DataRate	CameraRate	NumFrames	NumMarkers	Units	OrigDataRate	OrigDataStartFrame	OrigNumFrames
120.000000	120.000000	7	39	mm	120.000000	356	406
Frame#	Time	LFWT			RFWT			VBWT			LKNE			LANK			LMT5			LMT1			LHEL			LTOE			RKNE			RANK			RMT5			RMT1			RHEL			RTOE			T10			FHEAD			THEAD			RHEAD			LBSH			LELB			LOWR			RBSH			RELB			ROWR			LTHI			RTHI			LSHAN			RSHAN			LIHEL			LOHEL			RIHEL			ROHEL			LMT3			LNAVI			LCUNE			RMT3			RNAVI			RCUNE			
		X0	Y0	Z0	X1	Y1	Z1	X2	Y2	Z2	X3	Y3	Z3	X4	Y4	Z4	X5	Y5	Z5	X6	Y6	Z6	X7	Y7	Z7	X8	Y8	Z8	X9	Y9	Z9	X10	Y10	Z10	X11	Y11	Z11	X12	Y12	Z12	X13	Y13	Z13	X14	Y14	Z14	X15	Y15	Z15	X16	Y16	Z16	X17	Y17	Z17	X18	Y18	Z18	X19	Y19	Z19	X20	Y20	Z20	X21	Y21	Z21	X22	Y22	Z22	X23	Y23	Z23	X24	Y24	Z24	X25	Y25	Z25	X26	Y26	Z26	X27	Y27	Z27	X28	Y28	Z28	X29	Y29	Z29	X30	Y30	Z30	X31	Y31	Z31	X32	Y32	Z32	X33	Y33	Z33	X34	Y34	Z34	X35	Y35	Z35	X36	Y36	Z36	X37	Y37	Z37	X38	Y38	Z38	
356	2.966667	-2069.125488	8.723970	950.161011	-2066.479736	294.557922	953.237061	-1840.113770	152.608215	943.076050	-1985.639648	29.873730	458.056763	-1874.557495	61.311169	65.814392	-1974.829224	36.481419	37.360069	-2030.421509	107.074738	42.165588	-1814.324219	119.849503	49.922039	-2064.809326	91.179451	32.503120	-2160.893555	339.352448	496.166138	-2022.066040	306.786896	115.903183	-2113.310547	335.056702	52.777390	-2165.984619	270.323151	61.700420	-1965.933105	231.992340	108.627449	-2197.581299	297.391724	54.311100	-1860.653809	87.626442	1279.271973	-2177.706299	134.418350	1625.202759	-2083.052490	169.994461	1721.088501	-1969.028198	194.489044	1665.345093	-2020.942749	-42.122921	1429.189453	-2058.266357	-157.595245	1112.278442	-2246.274658	-132.322754	937.720215	-1993.855591	362.499451	1415.618286	-1909.367676	455.929596	1102.361206	-1967.701660	470.552307	844.910034	-2091.454834	75.759598	615.944824	-2218.235596	288.835022	628.492493	-1979.214478	113.846313	321.624207	-2127.709961	254.737717	268.049866	-1850.749023	151.614792	47.971130	-1841.869263	80.953377	45.488689	-2010.090820	216.127243	99.079086	-1986.685547	279.842957	99.144997	-2018.845581	67.906059	38.612751	-1935.718628	152.048538	46.847919	-1912.806519	52.637852	33.834660	-2150.848389	303.981750	56.324032	-2086.393799	225.927383	97.686539	-2054.126465	319.909576	70.890709
357	2.975000	-2078.617676	8.446430	948.696533	-2077.324951	294.201843	951.519775	-1850.008179	153.981125	941.628296	-1990.095215	29.854931	457.137054	-1874.791382	61.489399	65.813812	-1974.777344	36.530239	37.304470	-2030.474854	107.037086	42.081871	-1814.342773	120.075401	50.412689	-2064.868164	91.091553	32.477871	-2176.217529	337.696106	495.711548	-2055.784912	308.121124	108.828346	-2150.134766	335.367310	49.882801	-2202.523438	269.540558	62.768139	-1999.383667	234.507324	97.687233	-2234.355713	296.173706	58.005840	-1871.432129	87.969971	1278.136597	-2188.816650	134.780579	1623.935547	-2094.421143	170.617035	1719.488403	-1980.664673	194.770355	1663.941528	-2031.687988	-41.952751	1428.301636	-2073.617432	-158.260010	1112.247437	-2266.287598	-131.160049	943.350281	-2004.852417	362.485229	1413.926636	-1915.829468	454.521637	1101.660034	-1969.824463	469.749481	843.325928	-2098.030273	75.601540	614.195251	-2231.240479	287.338409	628.885620	-1980.608276	114.149223	320.442108	-2153.020996	254.375763	266.223907	-1851.130981	151.888000	48.417351	-1842.124023	81.324867	45.619011	-2045.010620	214.699509	92.797523	-2021.352173	281.505157	90.042503	-2018.865723	67.925362	38.607689	-1935.912720	152.181732	46.821629	-1912.895752	52.756008	33.902302	-2187.669678	303.219330	56.458462	-2120.215820	226.538376	94.487862	-2090.181396	320.491180	65.179329
358	2.983333	-2089.830078	8.955720	948.002502	-2088.546387	293.874634	949.556580	-1860.113647	154.141403	939.886475	-1993.301270	30.627880	455.769958	-1875.220581	61.817001	65.958237	-1974.709351	36.612740	37.221272	-2030.539185	106.952499	41.983711	-1814.531616	120.521973	50.930679	-2064.724365	91.103180	32.391369	-2190.658691	336.106140	495.302185	-2090.231689	308.567535	102.165123	-2187.213867	336.730927	49.391788	-2238.362549	269.118134	64.401230	-2033.226685	236.169128	87.966087	-2270.850830	295.207947	61.723869	-1881.618652	87.991280	1276.539795	-2200.022217	134.909164	1622.379150	-2105.561279	171.173431	1718.335449	-1991.534058	196.120819	1662.613159	-2042.659302	-41.397911	1426.976074	-2088.431152	-158.928986	1111.576294	-2285.903809	-129.979095	948.702637	-2015.562012	362.931763	1411.977295	-1922.913086	453.761780	1101.134155	-1971.853760	469.408264	841.552368	-2104.656982	75.069733	612.269043	-2243.632568	285.955902	628.554504	-1984.721924	114.294357	319.871094	-2178.369141	253.701447	265.002472	-1851.167969	151.938660	48.499432	-1842.283569	81.889198	45.894878	-2080.007568	214.599152	87.822441	-2055.948730	283.670929	82.124352	-2018.804443	67.885017	38.479710	-1935.866821	152.434631	46.647629	-1912.720337	53.469440	33.431820	-2224.781982	303.207123	57.579762	-2154.136719	227.171143	91.518883	-2128.181641	320.217133	60.913368
359	2.991667	-2095.893799	6.168200	944.261719	-2099.700684	293.626862	947.334656	-1870.821655	155.012665	938.370667	-1998.285400	30.526871	455.050659	-1875.466064	62.178741	66.284348	-1974.663818	36.639481	37.256748	-2030.026611	107.077049	41.873680	-1814.510986	121.200439	51.613590	-2064.799072	90.921013	32.438190	-2205.508545	334.133698	494.227814	-2123.765137	310.061005	96.550194	-2225.074219	336.537720	49.282410	-2273.761719	268.560455	66.442528	-2067.989746	238.381271	79.866127	-2306.843994	294.606537	66.476334	-1891.676514	88.931976	1275.804077	-2211.015381	135.354675	1620.629150	-2116.721436	171.901962	1716.406494	-2003.249146	196.065002	1661.079834	-2053.359375	-41.201279	1425.795898	-2103.824951	-159.243820	1112.150269	-2304.999268	-128.872681	953.793762	-2026.227783	363.034210	1410.214600	-1929.418213	452.679718	1100.020508	-1974.113770	468.473450	839.894592	-2111.023926	74.784607	610.408997	-2255.901123	284.568237	627.748535	-1988.132446	114.290703	319.080170	-2203.189941	253.497772	263.753052	-1851.118530	152.043533	48.636848	-1842.145630	82.147186	46.456829	-2114.174561	215.506241	81.722908	-2092.023926	285.538910	75.444298	-2018.788696	67.878868	38.481232	-1935.598267	152.786545	46.655540	-1912.697510	53.581589	33.500092	-2260.867188	302.361908	59.220451	-2188.293213	227.244110	89.411018	-2164.515137	321.797241	57.193810
360	3.000000	-2107.321045	6.833680	943.424866	-2110.885254	293.473694	945.113098	-1881.975464	155.844330	936.845032	-2002.525757	30.636431	453.600098	-1875.235718	62.531040	66.824379	-1974.595581	37.645538	36.952290	-2030.558960	107.133087	41.678028	-1814.505615	121.662323	51.902660	-2064.824707	90.732880	32.397491	-2219.338623	332.620758	493.188782	-2160.808105	311.825317	91.280029	-2261.789307	336.875244	49.872761	-2309.312988	268.686066	69.745682	-2101.969238	240.476563	71.736382	-2342.046143	293.576538	71.177101	-1903.069824	88.578003	1274.116211	-2222.304199	135.376846	1618.776367	-2128.054443	172.272232	1714.708252	-2014.383179	196.687790	1658.962891	-2064.032959	-40.764660	1423.981934	-2118.191650	-158.920837	1111.236938	-2323.992432	-127.676422	958.950012	-2036.980103	363.564362	1408.273560	-1937.325317	452.128265	1099.026611	-1977.237793	467.826477	838.348145	-2117.431885	74.257797	608.366150	-2267.951172	283.059906	626.407593	-1990.805908	114.086517	317.992065	-2227.718994	253.041687	262.485565	-1851.247925	152.221359	48.905918	-1842.202271	82.577187	46.784199	-2148.359131	217.320038	76.248154	-2127.674561	287.464813	68.885551	-2018.732910	67.822678	38.387131	-1936.023804	152.552124	46.765259	-1912.714600	53.672649	33.568939	-2296.593018	301.843536	61.349220	-2222.278320	227.963852	87.538834	-2202.130371	322.450012	55.868900
361	3.008333	-2117.765625	7.041260	942.215759	-2122.247070	293.413361	942.702820	-1891.767212	156.571655	936.057495	-2007.062378	30.634470	452.565399	-1875.351563	62.792660	67.077927	-1974.354614	36.874149	37.093739	-2030.575562	107.066193	41.573589	-1814.525757	122.089737	52.522541	-2065.062256	90.270630	32.446159	-2233.374756	330.602570	491.481018	-2194.649658	313.760376	87.727203	-2297.838623	337.544525	51.317699	-2343.311035	268.489807	73.226227	-2135.894531	243.435623	64.794273	-2376.440430	292.832214	76.670059	-1914.084595	89.687599	1272.342163	-2233.481201	135.728439	1616.650146	-2139.366943	173.111618	1712.436279	-2025.631348	197.419952	1656.783813	-2074.936035	-40.379189	1422.152344	-2133.333252	-159.506317	1110.974609	-2342.384521	-126.286972	963.856384	-2047.645386	363.718231	1406.283081	-1944.253662	451.178864	1097.892944	-1980.819458	467.857574	836.921021	-2124.034668	73.290321	606.369263	-2279.629395	281.691498	624.682739	-1994.370117	114.154991	317.256500	-2251.821777	252.712860	261.722229	-1851.896973	152.672012	49.409088	-1842.347168	82.808617	47.762569	-2181.913818	218.409225	71.909683	-2162.251953	289.416534	62.584400	-2018.269287	68.234207	37.815048	-1936.240601	152.613480	46.750629	-1912.695557	53.755569	33.577641	-2332.179688	302.452850	64.622673	-2255.182373	228.832397	86.458809	-2237.335693	324.479370	53.613441
362	3.016667	-2127.770752	6.699210	940.404541	-2133.780762	293.232330	940.163086	-1903.717163	157.727386	934.335510	-2011.660156	30.132650	451.872498	-1875.296997	63.250961	67.180054	-1974.354126	37.695061	36.989552	-2030.522949	107.012993	41.425701	-1814.843262	122.418831	53.632641	-2065.144531	90.052002	32.221149	-2246.378906	328.775757	489.882599	-2223.812988	315.930206	86.025414	-2333.379639	338.242523	54.558189	-2376.521484	268.156525	76.997620	-2169.760986	245.959106	59.235378	-2409.922607	291.924622	82.820633	-1923.556763	89.842392	1270.780640	-2244.664795	135.924942	1614.562378	-2151.072021	173.696594	1710.695801	-2037.265137	198.121658	1655.206909	-2085.699951	-39.695950	1420.156494	-2147.794434	-159.623703	1110.210815	-2360.399414	-125.166817	968.616089	-2058.238037	364.377563	1404.281372	-1951.956665	450.864197	1096.873779	-1984.805298	467.241608	835.422302	-2130.773926	72.341087	604.283997	-2290.939697	280.536957	622.567200	-1997.532715	114.054779	316.440277	-2275.450928	252.449692	261.048584	-1852.584351	153.004105	50.252819	-1843.545776	83.264954	49.598591	-2214.367188	221.483139	66.743660	-2196.725830	292.022430	58.714520	-2018.132080	68.198143	37.731548	-1936.509766	152.737640	46.867722	-1912.565308	53.906219	33.576260	-2366.565430	303.051086	69.030724	-2286.902100	230.360687	85.620331	-2272.466797	326.407562	53.211899
